{
.appVersion = "3151";
.formatVersion = 3;
DisplayStrings = (
"ABCDEFGHI
JKLMNOPQRSTUVWXYZ",
Q,
"0123456789"
);
axes = (
{
name = WEIGHT;
tag = WGHT;
}
);
date = "2024-04-10 02:43:47 +0000";
familyName = Binel;
fontMaster = (
{
axesValues = (
0
);
id = m002;
metricValues = (
{
over = 16;
pos = 800;
},
{
over = 16;
pos = 700;
},
{
over = 16;
pos = 500;
},
{
over = -16;
},
{
over = -16;
pos = -200;
}
);
name = Regular;
},
{
axesValues = (
100
);
id = m003;
metricValues = (
{
over = 16;
pos = 800;
},
{
over = 16;
pos = 700;
},
{
over = 16;
pos = 500;
},
{
over = -16;
},
{
over = -16;
pos = -200;
}
);
name = Black;
}
);
glyphs = (
{
glyphname = A;
lastChange = "2024-04-11 21:30:59 +0000";
layers = (
{
background = {
shapes = (
{
closed = 1;
nodes = (
(72,0,l),
(134,254,l),
(319,254,l),
(377,0,l),
(400,0,l),
(251,645,l),
(251,645,o),
(238,700,o),
(238,700,cs),
(238,700,o),
(213,700,o),
(213,700,cs),
(216,700,o),
(203,645,o),
(203,645,c),
(50,0,l)
);
},
{
closed = 1;
nodes = (
(138,276,o),
(206,565,o),
(227,654,c),
(227,654,l),
(227,654,o),
(314,276,o),
(314,276,cs),
(314,276,o),
(138,276,o),
(138,276,cs)
);
}
);
};
layerId = m002;
shapes = (
{
closed = 1;
nodes = (
(216,700,l),
(146,404,l),
(50,0,l),
(72,0,l),
(133,254,l),
(319,254,l),
(377,0,l),
(400,0,l),
(308,399,l),
(239,700,l)
);
},
{
closed = 1;
nodes = (
(227,653,l),
(314,276,l),
(138,276,l)
);
}
);
width = 450;
},
{
layerId = m003;
shapes = (
{
closed = 1;
nodes = (
(346,700,l),
(50,404,l),
(50,0,l),
(607,0,l),
(607,127,l),
(889,127,l),
(889,0,l),
(1450,0,l),
(1450,399,l),
(1149,700,l)
);
},
{
closed = 1;
nodes = (
(748,540,l),
(889,399,l),
(607,399,l)
);
}
);
width = 1500;
}
);
unicode = 65;
},
{
glyphname = B;
lastChange = "2024-04-10 18:12:16 +0000";
layers = (
{
layerId = m002;
shapes = (
{
closed = 1;
nodes = (
(205,0,o),
(400,0,o),
(399,170,cs),
(400,359,o),
(238,370,o),
(216,370,c),
(238,370,o),
(359,382,o),
(359,524,cs),
(359,700,o),
(205,700,o),
(145,700,cs),
(145,700,o),
(124,700,o),
(61,700,cs),
(50,700,l),
(50,0,l),
(61,0,ls),
(145,0,o),
(125,0,o),
(145,0,cs)
);
},
{
closed = 1;
nodes = (
(71,360,l),
(198,360,o),
(378,359,o),
(378,170,cs),
(378,22,o),
(200,22,o),
(71,22,c)
);
},
{
closed = 1;
nodes = (
(71,678,l),
(200,678,o),
(340,684,o),
(340,524,cs),
(340,382,o),
(198,382,o),
(71,382,c)
);
}
);
width = 449;
},
{
layerId = m003;
shapes = (
{
closed = 1;
nodes = (
(1296,0,o),
(1386,0,o),
(1386,168,cs),
(1386,368,o),
(1342,368,o),
(1256,368,c),
(1342,368,o),
(1386,368,o),
(1385,535,cs),
(1384,700,o),
(1296,700,o),
(1066,700,cs),
(1066,700,o),
(321,700,o),
(98,700,cs),
(50,700,l),
(50,0,l),
(98,0,ls),
(418,0,o),
(1009,0,o),
(1066,0,cs)
);
},
{
closed = 1;
nodes = (
(521,300,l),
(771,300,o),
(830,300,o),
(830,243,cs),
(830,200,o),
(771,200,o),
(521,200,c)
);
},
{
closed = 1;
nodes = (
(521,562,l),
(771,562,o),
(829,562,o),
(830,511,cs),
(831,462,o),
(771,462,o),
(521,462,c)
);
}
);
width = 1436;
}
);
unicode = 66;
},
{
glyphname = C;
lastChange = "2024-04-10 23:42:44 +0000";
layers = (
{
layerId = m002;
shapes = (
{
closed = 1;
nodes = (
(379,263,l),
(379,49,o),
(275,22,o),
(226,22,c),
(129,22,o),
(72,122,o),
(72,350,c),
(72,567,o),
(122,678,o),
(226,678,c),
(282,678,o),
(373,658,o),
(378,437,c),
(400,437,l),
(397,608,o),
(354,700,o),
(226,700,c),
(226,700,l),
(105,700,o),
(50,583,o),
(50,350,c),
(50,350,l),
(50,100,o),
(124,0,o),
(226,0,c),
(226,0,l),
(295,0,o),
(394,47,o),
(400,263,c)
);
}
);
width = 450;
},
{
layerId = m003;
shapes = (
{
closed = 1;
nodes = (
(896,313,l),
(876,264,o),
(829,209,o),
(751,209,c),
(657,209,o),
(599,283,o),
(599,350,c),
(599,417,o),
(657,491,o),
(751,491,c),
(829,491,o),
(876,435,o),
(896,387,c),
(1450,387,l),
(1427,563,o),
(1239,700,o),
(1011,700,c),
(491,700,l),
(247,700,o),
(50,544,o),
(50,350,c),
(50,350,l),
(50,156,o),
(247,0,o),
(491,0,c),
(1011,0,l),
(1239,0,o),
(1427,137,o),
(1450,313,c)
);
}
);
width = 1500;
}
);
unicode = 67;
},
{
glyphname = D;
lastChange = "2024-04-10 23:43:07 +0000";
layers = (
{
background = {
shapes = (
{
closed = 1;
nodes = (
(56,47,o),
(155,0,o),
(224,0,c),
(224,0,l),
(326,0,o),
(400,100,o),
(400,350,c),
(400,350,l),
(400,583,o),
(345,700,o),
(224,700,c),
(224,700,l),
(96,700,o),
(53,608,o),
(50,437,c),
(72,437,l),
(77,658,o),
(168,678,o),
(224,678,c),
(328,678,o),
(378,567,o),
(378,350,c),
(378,122,o),
(321,22,o),
(224,22,c),
(175,22,o),
(71,49,o),
(71,263,c),
(50,263,l)
);
}
);
};
layerId = m002;
shapes = (
{
closed = 1;
nodes = (
(378,0,o),
(107,22,o),
(100,22,c),
(72,22,l),
(72,678,l),
(100,678,l),
(107,678,o),
(378,701,o),
(378,364,c)
);
},
{
closed = 1;
nodes = (
(50,700,l),
(50,0,l),
(105,0,l),
(153,0,o),
(400,0,o),
(400,350,c),
(400,350,l),
(400,700,o),
(153,700,o),
(105,700,c)
);
}
);
width = 450;
},
{
layerId = m003;
shapes = (
{
closed = 1;
nodes = (
(831,337,o),
(808,315,o),
(781,315,c),
(670,315,l),
(670,415,l),
(781,415,l),
(808,415,o),
(831,393,o),
(831,365,c)
);
},
{
closed = 1;
nodes = (
(50,700,l),
(50,0,l),
(1100,0,l),
(1293,0,o),
(1450,157,o),
(1450,350,c),
(1450,350,l),
(1450,543,o),
(1293,700,o),
(1100,700,c)
);
}
);
width = 1500;
}
);
unicode = 68;
},
{
glyphname = E;
lastChange = "2024-04-10 18:22:00 +0000";
layers = (
{
layerId = m002;
shapes = (
{
closed = 1;
nodes = (
(50,700,l),
(50,0,l),
(400,0,l),
(400,22,l),
(72,22,l),
(72,381,l),
(370,381,l),
(370,403,l),
(72,403,l),
(72,678,l),
(400,678,l),
(400,700,l)
);
}
);
width = 450;
},
{
layerId = m003;
shapes = (
{
closed = 1;
nodes = (
(50,700,l),
(50,0,l),
(1450,0,l),
(1450,187,l),
(1043,187,l),
(1043,268,l),
(1450,268,l),
(1450,433,l),
(1043,433,l),
(1043,514,l),
(1450,514,l),
(1450,700,l)
);
}
);
width = 1500;
}
);
unicode = 69;
},
{
glyphname = F;
lastChange = "2024-04-10 18:25:36 +0000";
layers = (
{
layerId = m002;
shapes = (
{
closed = 1;
nodes = (
(50,700,l),
(50,0,l),
(72,0,l),
(72,361,l),
(370,361,l),
(370,383,l),
(72,383,l),
(72,678,l),
(400,678,l),
(400,700,l)
);
}
);
width = 450;
},
{
layerId = m003;
shapes = (
{
closed = 1;
nodes = (
(50,700,l),
(50,0,l),
(750,0,l),
(750,266,l),
(1450,266,l),
(1450,432,l),
(750,432,l),
(750,513,l),
(1450,513,l),
(1450,700,l)
);
}
);
width = 1500;
}
);
unicode = 70;
},
{
glyphname = G;
lastChange = "2024-04-10 18:38:40 +0000";
layers = (
{
layerId = m002;
shapes = (
{
closed = 1;
nodes = (
(400,157,o),
(380,0,o),
(234,0,c),
(234,0,l),
(162,0,o),
(117,40,o),
(91,102,cs),
(65,164,o),
(50,253,o),
(50,350,c),
(50,543,o),
(119,700,o),
(224,700,c),
(224,700,l),
(340,700,o),
(398,584,o),
(398,429,c),
(380,429,l),
(380,507,o),
(355,679,o),
(224,679,c),
(171,679,o),
(72,609,o),
(72,350,c),
(72,350,l),
(72,12,o),
(212,22,o),
(234,22,c),
(234,22,l),
(370,22,o),
(378,164,o),
(378,336,c),
(225,336,l),
(225,358,l),
(400,358,l),
(400,355,o),
(400,353,o),
(400,350,c)
);
}
);
width = 450;
},
{
layerId = m003;
shapes = (
{
closed = 1;
nodes = (
(1450,157,o),
(1293,0,o),
(1101,0,c),
(398,0,l),
(302,0,o),
(215,39,o),
(152,102,c),
(89,166,o),
(50,253,o),
(50,350,c),
(50,543,o),
(206,700,o),
(398,700,c),
(1101,700,l),
(1266,700,o),
(1405,584,o),
(1441,429,c),
(906,429,l),
(880,497,o),
(813,545,o),
(736,545,c),
(635,545,o),
(553,463,o),
(553,361,c),
(553,317,l),
(553,227,o),
(625,155,o),
(714,155,c),
(919,155,l),
(919,189,o),
(919,223,o),
(919,257,c),
(749,257,l),
(749,358,l),
(1449,358,l),
(1449,355,o),
(1450,353,o),
(1450,350,c)
);
}
);
width = 1500;
}
);
unicode = 71;
},
{
glyphname = H;
lastChange = "2024-04-10 18:41:55 +0000";
layers = (
{
layerId = m002;
shapes = (
{
closed = 1;
nodes = (
(378,700,l),
(378,362,l),
(72,362,l),
(72,700,l),
(50,700,l),
(50,0,l),
(72,0,l),
(72,340,l),
(378,340,l),
(378,0,l),
(400,0,l),
(400,700,l)
);
}
);
width = 450;
},
{
layerId = m003;
shapes = (
{
closed = 1;
nodes = (
(1001,700,l),
(1001,572,l),
(530,572,l),
(530,700,l),
(50,700,l),
(50,0,l),
(530,0,l),
(530,129,l),
(1001,129,l),
(1001,0,l),
(1450,0,l),
(1450,700,l)
);
}
);
width = 1500;
}
);
unicode = 72;
},
{
glyphname = I;
lastChange = "2024-04-11 00:22:07 +0000";
layers = (
{
layerId = m002;
shapes = (
{
closed = 1;
nodes = (
(56,700,l),
(56,678,l),
(217,678,l),
(217,22,l),
(50,22,l),
(50,0,l),
(394,0,l),
(394,22,l),
(239,22,l),
(239,678,l),
(400,678,l),
(400,700,l)
);
}
);
width = 450;
},
{
layerId = m003;
shapes = (
{
closed = 1;
nodes = (
(56,700,l),
(56,400,l),
(509,400,l),
(509,300,l),
(50,300,l),
(50,0,l),
(1450,0,l),
(1450,300,l),
(1028,300,l),
(1028,400,l),
(1450,400,l),
(1450,700,l)
);
}
);
width = 1500;
}
);
unicode = 73;
},
{
glyphname = J;
lastChange = "2024-04-11 20:26:41 +0000";
layers = (
{
layerId = m002;
shapes = (
{
closed = 1;
nodes = (
(378,700,l),
(378,480,l),
(378,199,o),
(378,22,o),
(225,22,c),
(72,22,o),
(72,206,o),
(72,240,c),
(72,241,l),
(50,241,l),
(50,206,l),
(50,206,o),
(50,0,o),
(225,0,c),
(225,0,l),
(391,0,o),
(400,199,o),
(400,446,c),
(400,700,l)
);
}
);
width = 450;
},
{
layerId = m003;
shapes = (
{
closed = 1;
nodes = (
(866,700,l),
(866,480,l),
(866,416,o),
(814,363,o),
(750,363,c),
(685,363,o),
(633,416,o),
(633,480,c),
(633,480,l),
(50,480,l),
(50,445,l),
(50,200,o),
(249,0,o),
(495,0,c),
(1005,0,l),
(1251,0,o),
(1450,200,o),
(1450,445,c),
(1450,700,l)
);
}
);
width = 1500;
}
);
unicode = 74;
},
{
glyphname = K;
lastChange = "2024-04-10 19:12:06 +0000";
layers = (
{
layerId = m002;
shapes = (
{
closed = 1;
nodes = (
(369,700,l),
(72,389,l),
(72,700,l),
(50,700,l),
(50,0,l),
(72,0,l),
(72,352,l),
(371,0,l),
(400,0,l),
(400,0,l),
(85,371,l),
(400,700,l),
(400,700,l)
);
}
);
width = 450;
},
{
layerId = m003;
shapes = (
{
closed = 1;
nodes = (
(789,700,l),
(625,536,l),
(625,700,l),
(50,700,l),
(50,0,l),
(625,0,l),
(625,164,l),
(789,0,l),
(1450,0,l),
(1450,272,l),
(1347,375,l),
(1450,478,l),
(1450,700,l)
);
}
);
width = 1500;
}
);
unicode = 75;
},
{
glyphname = L;
lastChange = "2024-04-10 19:28:59 +0000";
layers = (
{
layerId = m002;
shapes = (
{
closed = 1;
nodes = (
(50,700,l),
(50,0,l),
(400,0,l),
(400,22,l),
(72,22,l),
(72,700,l)
);
}
);
width = 450;
},
{
layerId = m003;
shapes = (
{
closed = 1;
nodes = (
(50,700,l),
(50,0,l),
(1450,0,l),
(1450,225,l),
(920,225,l),
(920,700,l)
);
}
);
width = 1500;
}
);
unicode = 76;
},
{
glyphname = M;
lastChange = "2024-04-10 22:44:58 +0000";
layers = (
{
layerId = m002;
shapes = (
{
closed = 1;
nodes = (
(359,700,l),
(225,18,l),
(91,700,l),
(50,700,l),
(50,0,l),
(72,0,l),
(72,682,l),
(206,0,l),
(244,0,l),
(378,682,l),
(378,0,l),
(400,0,l),
(400,700,l)
);
}
);
width = 450;
},
{
layerId = m003;
shapes = (
{
closed = 1;
nodes = (
(886,700,l),
(751,565,l),
(614,700,l),
(50,700,l),
(50,0,l),
(399,0,l),
(399,194,l),
(593,0,l),
(907,0,l),
(1101,194,l),
(1101,0,l),
(1450,0,l),
(1450,700,l)
);
}
);
width = 1500;
}
);
unicode = 77;
},
{
glyphname = N;
lastChange = "2024-04-10 22:48:35 +0000";
layers = (
{
layerId = m002;
shapes = (
{
closed = 1;
nodes = (
(378,700,l),
(378,21,l),
(87,700,l),
(50,700,l),
(50,0,l),
(72,0,l),
(72,678,l),
(363,0,l),
(400,0,l),
(400,700,l)
);
}
);
width = 450;
},
{
layerId = m003;
shapes = (
{
closed = 1;
nodes = (
(1094,700,l),
(1094,511,l),
(906,700,l),
(50,700,l),
(50,0,l),
(403,0,l),
(403,190,l),
(594,0,l),
(1450,0,l),
(1450,700,l)
);
}
);
width = 1500;
}
);
unicode = 78;
},
{
glyphname = O;
lastChange = "2024-04-10 22:54:57 +0000";
layers = (
{
layerId = m002;
shapes = (
{
closed = 1;
nodes = (
(128,21,o),
(72,143,o),
(72,351,c),
(72,556,o),
(128,678,o),
(225,678,c),
(322,678,o),
(378,556,o),
(378,351,c),
(378,143,o),
(322,21,o),
(225,21,c)
);
},
{
closed = 1;
nodes = (
(225,700,l),
(92,700,o),
(50,543,o),
(50,351,c),
(50,351,l),
(50,156,o),
(96,0,o),
(225,0,c),
(225,0,l),
(353,0,o),
(400,156,o),
(400,351,c),
(400,351,l),
(400,543,o),
(349,700,o),
(225,700,c)
);
}
);
width = 450;
},
{
layerId = m003;
shapes = (
{
closed = 1;
nodes = (
(673,210,o),
(610,272,o),
(610,350,c),
(610,427,o),
(673,489,o),
(750,489,c),
(827,489,o),
(890,427,o),
(890,350,c),
(890,272,o),
(827,210,o),
(750,210,c)
);
},
{
closed = 1;
nodes = (
(400,700,l),
(207,700,o),
(50,543,o),
(50,350,c),
(50,350,l),
(50,156,o),
(207,0,o),
(400,0,c),
(1100,0,l),
(1293,0,o),
(1450,156,o),
(1450,350,c),
(1450,350,l),
(1450,543,o),
(1293,700,o),
(1100,700,c)
);
}
);
width = 1500;
}
);
unicode = 79;
},
{
glyphname = P;
lastChange = "2024-04-10 23:01:00 +0000";
layers = (
{
layerId = m002;
shapes = (
{
closed = 1;
nodes = (
(378,392,o),
(241,381,o),
(234,381,c),
(72,381,l),
(72,678,l),
(234,678,l),
(241,678,o),
(378,676,o),
(378,542,c)
);
},
{
closed = 1;
nodes = (
(50,700,l),
(50,0,l),
(72,0,l),
(72,359,l),
(234,359,l),
(271,359,o),
(400,393,o),
(400,539,c),
(400,539,l),
(400,683,o),
(271,700,o),
(234,700,c)
);
}
);
width = 450;
},
{
layerId = m003;
shapes = (
{
closed = 1;
nodes = (
(981,442,o),
(959,419,o),
(931,419,c),
(750,419,l),
(750,520,l),
(931,520,l),
(959,520,o),
(981,498,o),
(981,470,c)
);
},
{
closed = 1;
nodes = (
(50,700,l),
(50,0,l),
(750,0,l),
(750,233,l),
(1216,233,l),
(1345,233,o),
(1450,337,o),
(1450,466,c),
(1450,466,l),
(1450,595,o),
(1345,700,o),
(1216,700,c)
);
}
);
width = 1500;
}
);
unicode = 80;
},
{
glyphname = Q;
lastChange = "2024-04-11 21:13:16 +0000";
layers = (
{
background = {
shapes = (
{
closed = 1;
nodes = (
(347,103,l),
(327,62,o),
(306,22,o),
(227,22,c),
(138,22,o),
(72,96,o),
(72,350,c),
(72,620,o),
(138,678,o),
(227,678,c),
(312,678,o),
(378,620,o),
(378,350,cs),
(378,241,o),
(373,188,o),
(355,133,cs),
(355,133,o),
(292,242,o),
(292,242,cs),
(292,242,o),
(273,230,o),
(273,230,c)
);
},
{
closed = 1;
nodes = (
(384,147,o),
(400,185,o),
(400,350,cs),
(400,533,o),
(382,700,o),
(227,700,c),
(227,700,l),
(76,700,o),
(50,533,o),
(50,350,c),
(50,185,o),
(76,0,o),
(227,0,cs),
(310,0,o),
(340,41,o),
(359,77,c),
(400,0,l),
(419,11,l),
(369,105,l),
(369,105,o),
(369,105,o),
(369,105,cs)
);
}
);
};
layerId = m002;
shapes = (
{
closed = 1;
nodes = (
(355,678,o),
(378,558,o),
(378,349,c),
(378,170,o),
(361,21,o),
(224,21,c),
(87,21,o),
(72,168,o),
(72,349,c),
(72,533,o),
(97,678,o),
(224,678,c)
);
},
{
closed = 1;
nodes = (
(400,440,o),
(397,526,o),
(375,588,cs),
(353,651,o),
(310,700,o),
(224,700,c),
(224,700,l),
(71,700,o),
(50,544,o),
(50,350,c),
(50,234,o),
(55,136,o),
(92,74,cs),
(125,19,o),
(171,0,o),
(210,0,c),
(210,0,l),
(302,-101,l),
(329,-101,l),
(329,-101,l),
(240,0,l),
(379,0,o),
(400,172,o),
(400,350,c)
);
}
);
width = 450;
},
{
background = {
shapes = (
{
closed = 1;
nodes = (
(756,350,l),
(756,302,o),
(756,253,o),
(756,205,c),
(670,205,o),
(601,274,o),
(601,360,c),
(601,446,o),
(670,515,o),
(756,515,c),
(842,515,o),
(912,446,o),
(912,360,c),
(912,357,o),
(912,353,o),
(912,350,c)
);
},
{
closed = 1;
nodes = (
(1422,318,o),
(1450,381,o),
(1450,450,c),
(1450,588,o),
(1338,700,o),
(1200,700,c),
(400,700,l),
(207,700,o),
(50,543,o),
(50,350,c),
(50,253,o),
(89,165,o),
(152,102,c),
(216,39,o),
(303,0,o),
(400,0,c),
(1450,0,l),
(1450,200,l),
(1200,200,l),
(1269,200,o),
(1332,228,o),
(1377,273,c)
);
}
);
};
layerId = m003;
shapes = (
{
closed = 1;
nodes = (
(827,490,o),
(890,428,o),
(890,350,c),
(890,273,o),
(827,211,o),
(750,211,c),
(673,211,o),
(610,273,o),
(610,350,c),
(610,428,o),
(673,490,o),
(750,490,c)
);
},
{
closed = 1;
nodes = (
(1450,447,o),
(1411,534,o),
(1347,598,c),
(1284,661,o),
(1196,700,o),
(1100,700,c),
(400,700,l),
(207,700,o),
(50,544,o),
(50,350,c),
(50,254,o),
(89,166,o),
(152,103,c),
(216,40,o),
(303,0,o),
(400,0,c),
(610,0,l),
(708,-115,l),
(1192,-115,l),
(1094,0,l),
(1100,0,l),
(1293,0,o),
(1450,157,o),
(1450,350,c)
);
}
);
width = 1500;
}
);
unicode = 81;
},
{
glyphname = R;
lastChange = "2024-04-11 21:23:33 +0000";
layers = (
{
background = {
shapes = (
{
closed = 1;
nodes = (
(72,349,l),
(72,678,l),
(91,678,ls),
(290,678,o),
(378,674,o),
(378,507,cs),
(378,349,o),
(290,349,o),
(91,349,cs)
);
},
{
closed = 1;
nodes = (
(21,21,o),
(99,327,o),
(100,327,cs),
(100,327,ls),
(283,327,o),
(400,327,o),
(400,507,cs),
(400,507,o),
(400,507,o),
(400,507,cs),
(400,700,o),
(281,700,o),
(91,700,cs),
(50,700,l),
(50,0,l),
(72,0,l),
(72,325,l),
(369,0,l),
(399,0,l),
(100,327,ls),
(99,328,o),
(21,21,o),
(99,327,cs)
);
},
{
closed = 1;
nodes = (
(21,21,o),
(99,327,o),
(100,327,cs),
(100,327,ls),
(99,327,o),
(21,21,o),
(99,327,cs)
);
}
);
};
layerId = m002;
shapes = (
{
closed = 1;
nodes = (
(72,349,l),
(72,678,l),
(91,678,l),
(268,678,o),
(378,680,o),
(378,507,c),
(378,349,o),
(290,349,o),
(91,349,c)
);
},
{
closed = 1;
nodes = (
(99,327,o),
(99,327,o),
(100,327,c),
(100,327,l),
(283,327,o),
(400,327,o),
(400,507,c),
(400,542,o),
(395,607,o),
(352,650,cs),
(320,682,o),
(281,700,o),
(91,700,c),
(50,700,l),
(50,0,l),
(72,0,l),
(72,325,l),
(369,0,l),
(399,0,l),
(100,327,l),
(99,327,o),
(99,327,o),
(99,327,c)
);
},
{
closed = 1;
nodes = (
(99,327,o),
(99,327,o),
(100,327,c),
(100,327,l),
(99,327,o),
(99,327,o),
(99,327,c)
);
}
);
width = 450;
},
{
layerId = m003;
shapes = (
{
closed = 1;
nodes = (
(676,396,l),
(676,507,l),
(868,507,l),
(898,507,o),
(923,482,o),
(923,452,c),
(923,421,o),
(898,396,o),
(868,396,c)
);
},
{
closed = 1;
nodes = (
(1234,207,o),
(1235,207,o),
(1236,207,c),
(1236,207,l),
(1357,223,o),
(1450,327,o),
(1450,452,c),
(1450,521,o),
(1422,582,o),
(1377,627,c),
(1333,672,o),
(1271,700,o),
(1203,700,c),
(50,700,l),
(50,0,l),
(676,0,l),
(676,205,l),
(881,0,l),
(1444,0,l),
(1236,207,l),
(1235,207,o),
(1234,207,o),
(1234,207,c)
);
},
{
closed = 1;
nodes = (
(1234,207,o),
(1235,207,o),
(1236,207,c),
(1236,207,l),
(1235,207,o),
(1234,207,o),
(1234,207,c)
);
}
);
width = 1500;
}
);
unicode = 82;
},
{
glyphname = S;
lastChange = "2024-04-11 15:25:26 +0000";
layers = (
{
layerId = m002;
shapes = (
{
closed = 1;
nodes = (
(220,373,l),
(170,393,o),
(72,390,o),
(72,525,c),
(72,648,o),
(129,678,o),
(219,678,cs),
(325,678,o),
(373,648,o),
(373,464,c),
(373,464,o),
(373,464,o),
(373,464,c),
(395,464,l),
(395,655,o),
(344,700,o),
(219,700,c),
(219,700,l),
(110,700,o),
(50,655,o),
(50,525,c),
(50,525,l),
(50,375,o),
(160,372,o),
(220,350,cs),
(220,350,l),
(286,325,o),
(378,291,o),
(378,195,cs),
(378,63,o),
(325,22,o),
(219,22,c),
(129,22,o),
(77,73,o),
(77,235,c),
(55,235,l),
(55,69,o),
(110,0,o),
(219,0,c),
(219,0,l),
(344,0,o),
(400,59,o),
(400,195,c),
(400,195,l),
(400,311,o),
(281,351,o),
(220,373,c)
);
}
);
width = 450;
},
{
background = {
shapes = (
{
closed = 1;
nodes = (
(638,422,l),
(638,462,l),
(638,511,o),
(677,550,o),
(726,550,c),
(751,550,o),
(773,540,o),
(789,524,c),
(804,509,o),
(814,488,o),
(815,464,c),
(1430,464,l),
(1383,601,o),
(1253,700,o),
(1100,700,c),
(400,700,l),
(206,700,o),
(50,543,o),
(50,350,c),
(50,350,l),
(50,325,o),
(52,301,o),
(57,277,c),
(815,277,l),
(815,237,l),
(815,188,o),
(775,149,o),
(726,149,c),
(678,149,o),
(639,187,o),
(638,235,c),
(69,235,l),
(117,98,o),
(247,0,o),
(400,0,c),
(1100,0,l),
(1293,0,o),
(1450,156,o),
(1450,350,c),
(1450,350,l),
(1450,374,o),
(1447,399,o),
(1442,422,c)
);
}
);
};
layerId = m003;
shapes = (
{
closed = 1;
nodes = (
(638,422,l),
(638,422,o),
(638,464,o),
(638,464,c),
(638,508,o),
(678,550,o),
(726,550,cs),
(775,550,o),
(815,508,o),
(815,464,c),
(815,464,o),
(815,464,o),
(815,464,c),
(1430,464,l),
(1390,596,o),
(1247,700,o),
(1100,700,c),
(400,700,l),
(206,700,o),
(11,529,o),
(57,277,c),
(57,277,l),
(57,277,o),
(57,277,o),
(57,277,c),
(815,277,l),
(815,277,o),
(815,231,o),
(815,231,cs),
(815,190,o),
(775,149,o),
(726,149,c),
(678,149,o),
(639,187,o),
(638,235,c),
(70,235,l),
(70,200,o),
(180,0,o),
(400,0,c),
(1115,0,l),
(1305,11,o),
(1486,171,o),
(1442,422,c),
(1442,422,l),
(1442,422,o),
(638,422,o),
(638,422,c)
);
}
);
width = 1500;
}
);
unicode = 83;
},
{
glyphname = T;
lastChange = "2024-04-11 15:26:45 +0000";
layers = (
{
layerId = m002;
shapes = (
{
closed = 1;
nodes = (
(50,700,l),
(50,678,l),
(214,678,l),
(214,0,l),
(236,0,l),
(236,678,l),
(400,678,l),
(400,700,l)
);
}
);
width = 450;
},
{
layerId = m003;
shapes = (
{
closed = 1;
nodes = (
(50,700,l),
(50,242,l),
(477,242,l),
(477,0,l),
(1023,0,l),
(1023,242,l),
(1450,242,l),
(1450,700,l)
);
}
);
width = 1500;
}
);
unicode = 84;
},
{
glyphname = U;
lastChange = "2024-04-11 15:32:07 +0000";
layers = (
{
layerId = m002;
shapes = (
{
closed = 1;
nodes = (
(378,700,l),
(378,314,l),
(378,80,o),
(329,22,o),
(225,22,cs),
(120,22,o),
(72,80,o),
(72,314,c),
(72,700,l),
(50,700,l),
(50,314,l),
(50,75,o),
(102,0,o),
(225,0,c),
(225,0,l),
(348,0,o),
(400,75,o),
(400,314,c),
(400,700,l)
);
}
);
width = 450;
},
{
layerId = m003;
shapes = (
{
closed = 1;
nodes = (
(820,700,l),
(820,587,l),
(820,548,o),
(788,517,o),
(750,517,c),
(711,517,o),
(680,548,o),
(680,587,c),
(680,700,l),
(50,700,l),
(50,352,l),
(50,157,o),
(207,0,o),
(401,0,c),
(1098,0,l),
(1292,0,o),
(1450,157,o),
(1450,352,c),
(1450,700,l)
);
}
);
width = 1500;
}
);
unicode = 85;
},
{
glyphname = V;
lastChange = "2024-04-11 15:37:32 +0000";
layers = (
{
layerId = m002;
shapes = (
{
closed = 1;
nodes = (
(377,700,l),
(225,33,l),
(73,700,l),
(50,700,l),
(50,700,l),
(210,0,l),
(240,0,l),
(400,700,l),
(400,700,l)
);
}
);
width = 450;
},
{
layerId = m003;
shapes = (
{
closed = 1;
nodes = (
(912,700,l),
(750,537,l),
(587,700,l),
(50,700,l),
(50,226,l),
(276,0,l),
(1223,0,l),
(1450,226,l),
(1450,700,l)
);
}
);
width = 1500;
}
);
unicode = 86;
},
{
glyphname = W;
lastChange = "2024-04-11 15:44:56 +0000";
layers = (
{
layerId = m002;
shapes = (
{
closed = 1;
nodes = (
(378,700,l),
(318,30,l),
(241,700,l),
(209,700,l),
(132,30,l),
(72,700,l),
(50,700,l),
(113,0,l),
(151,0,l),
(225,646,l),
(299,0,l),
(337,0,l),
(400,700,l)
);
}
);
width = 450;
},
{
layerId = m003;
shapes = (
{
closed = 1;
nodes = (
(1101,700,l),
(1101,506,l),
(907,700,l),
(592,700,l),
(398,506,l),
(398,700,l),
(50,700,l),
(50,0,l),
(614,0,l),
(749,135,l),
(885,0,l),
(1450,0,l),
(1450,700,l)
);
}
);
width = 1500;
}
);
unicode = 87;
},
{
glyphname = X;
lastChange = "2024-04-11 16:44:41 +0000";
layers = (
{
layerId = m002;
shapes = (
{
closed = 1;
nodes = (
(376,700,l),
(226,375,l),
(74,700,l),
(50,700,l),
(50,700,l),
(213,351,l),
(50,0,l),
(50,0,l),
(74,0,l),
(226,326,l),
(376,0,l),
(400,0,l),
(400,0,l),
(238,351,l),
(400,700,l),
(400,700,l)
);
}
);
width = 450;
},
{
layerId = m003;
shapes = (
{
closed = 1;
nodes = (
(884,700,l),
(750,565,l),
(615,700,l),
(50,700,l),
(50,484,l),
(184,350,l),
(50,215,l),
(50,0,l),
(615,0,l),
(750,134,l),
(884,0,l),
(1450,0,l),
(1450,215,l),
(1315,350,l),
(1450,484,l),
(1450,700,l)
);
}
);
width = 1500;
}
);
unicode = 88;
},
{
glyphname = Y;
lastChange = "2024-04-11 16:50:07 +0000";
layers = (
{
layerId = m002;
shapes = (
{
closed = 1;
nodes = (
(376,700,l),
(225,376,l),
(74,700,l),
(50,700,l),
(50,700,l),
(214,348,l),
(214,0,l),
(236,0,l),
(236,348,l),
(400,700,l),
(400,700,l)
);
}
);
width = 450;
},
{
layerId = m003;
shapes = (
{
closed = 1;
nodes = (
(903,700,l),
(750,546,l),
(596,700,l),
(50,700,l),
(50,694,l),
(433,311,l),
(433,0,l),
(1066,0,l),
(1066,311,l),
(1450,694,l),
(1450,700,l)
);
}
);
width = 1500;
}
);
unicode = 89;
},
{
glyphname = Z;
lastChange = "2024-04-11 18:19:51 +0000";
layers = (
{
layerId = m002;
shapes = (
{
closed = 1;
nodes = (
(50,700,l),
(50,678,l),
(365,678,l),
(50,0,l),
(50,0,l),
(400,0,l),
(400,22,l),
(84,22,l),
(400,700,l),
(400,700,l)
);
}
);
width = 450;
},
{
layerId = m003;
shapes = (
{
closed = 1;
nodes = (
(50,700,l),
(50,489,l),
(324,489,l),
(50,215,l),
(50,0,l),
(1450,0,l),
(1450,210,l),
(1177,210,l),
(1450,483,l),
(1450,700,l)
);
}
);
width = 1500;
}
);
unicode = 90;
},
{
glyphname = zero;
lastChange = "2024-04-12 17:47:59 +0000";
layers = (
{
layerId = m002;
shapes = (
{
closed = 1;
nodes = (
(225,0,ls),
(81,0,o),
(50,157,o),
(50,350,cs),
(50,350,ls),
(50,544,o),
(81,700,o),
(225,700,cs),
(225,700,ls),
(361,700,o),
(400,544,o),
(400,350,cs),
(400,350,ls),
(400,157,o),
(361,0,o),
(225,0,cs)
);
},
{
closed = 1;
nodes = (
(378,555,o),
(334,678,o),
(225,678,cs),
(106,678,o),
(72,554,o),
(72,350,cs),
(72,131,o),
(113,22,o),
(225,22,cs),
(334,22,o),
(378,144,o),
(378,350,cs)
);
}
);
width = 450;
},
{
layerId = m003;
shapes = (
{
closed = 1;
nodes = (
(400,0,ls),
(206,0,o),
(50,156,o),
(50,350,cs),
(50,350,ls),
(50,543,o),
(206,700,o),
(400,700,cs),
(1100,700,ls),
(1293,700,o),
(1450,543,o),
(1450,350,cs),
(1450,350,ls),
(1450,156,o),
(1293,0,o),
(1100,0,cs)
);
},
{
closed = 1;
nodes = (
(858,444,o),
(809,520,o),
(750,520,cs),
(690,520,o),
(642,444,o),
(642,350,cs),
(642,255,o),
(690,179,o),
(750,179,cs),
(809,179,o),
(858,255,o),
(858,350,cs)
);
}
);
width = 1500;
}
);
unicode = 48;
},
{
glyphname = one;
lastChange = "2024-04-12 17:54:49 +0000";
layers = (
{
layerId = m002;
shapes = (
{
closed = 1;
nodes = (
(222,700,l),
(80,493,l),
(98,480,l),
(98,480,l),
(226,667,l),
(226,350,l),
(226,22,l),
(50,22,l),
(50,0,l),
(400,0,l),
(400,22,l),
(248,22,l),
(248,700,l)
);
}
);
width = 450;
},
{
layerId = m003;
shapes = (
{
closed = 1;
nodes = (
(297,700,l),
(50,453,l),
(50,350,l),
(381,350,l),
(501,470,l),
(501,350,l),
(501,193,l),
(50,193,l),
(50,0,l),
(1450,0,l),
(1450,193,l),
(1099,193,l),
(1099,700,l)
);
}
);
width = 1500;
}
);
unicode = 49;
},
{
glyphname = two;
lastChange = "2024-04-12 18:10:56 +0000";
layers = (
{
layerId = m002;
shapes = (
{
closed = 1;
nodes = (
(82,22,l),
(400,433,l),
(400,457,l),
(400,641,o),
(319,700,o),
(225,700,c),
(225,700,l),
(155,700,o),
(50,641,o),
(50,457,c),
(50,434,l),
(72,434,l),
(72,544,o),
(89,577,o),
(113,614,cs),
(140,656,o),
(184,678,o),
(225,678,c),
(284,678,o),
(324,656,o),
(353,598,cs),
(364,577,o),
(377,541,o),
(378,442,c),
(50,22,l),
(50,22,l),
(50,0,l),
(400,0,l),
(400,22,l)
);
}
);
width = 450;
},
{
layerId = m003;
shapes = (
{
closed = 1;
nodes = (
(1209,210,l),
(1450,341,l),
(1450,367,l),
(1450,551,o),
(1301,700,o),
(1117,700,c),
(382,700,l),
(198,700,o),
(50,551,o),
(50,367,c),
(50,344,l),
(575,344,l),
(575,378,o),
(589,409,o),
(611,431,c),
(633,453,o),
(664,467,o),
(698,467,c),
(732,467,o),
(762,453,o),
(785,431,c),
(807,409,o),
(821,378,o),
(821,344,c),
(575,210,l),
(50,210,l),
(50,0,l),
(1450,0,l),
(1450,210,l)
);
}
);
width = 1500;
}
);
unicode = 50;
},
{
glyphname = three;
lastChange = "2024-04-12 19:03:01 +0000";
layers = (
{
layerId = m002;
shapes = (
{
closed = 1;
nodes = (
(389,291,o),
(400,255,o),
(400,207,c),
(400,110,o),
(358,0,o),
(225,0,c),
(225,0,l),
(130,0,o),
(50,72,o),
(50,265,c),
(50,265,l),
(72,265,l),
(72,107,o),
(142,22,o),
(222,22,c),
(267,22,o),
(315,39,o),
(340,74,c),
(370,109,o),
(378,154,o),
(378,207,cs),
(378,354,o),
(255,390,o),
(232,390,c),
(232,390,o),
(232,390,o),
(232,390,c),
(261,390,o),
(378,445,o),
(378,545,cs),
(378,586,o),
(373,595,o),
(358,620,cs),
(328,671,o),
(262,678,o),
(222,678,c),
(186,678,o),
(136,675,o),
(97,625,cs),
(68,588,o),
(71,519,o),
(72,474,c),
(50,474,l),
(50,525,l),
(50,621,o),
(90,700,o),
(225,700,c),
(225,700,l),
(291,700,o),
(344,677,o),
(367,648,cs),
(391,617,o),
(400,593,o),
(400,545,c),
(400,444,o),
(305,390,o),
(295,390,c),
(309,390,o),
(354,351,o),
(371,322,cs)
);
}
);
width = 450;
},
{
layerId = m003;
shapes = (
{
closed = 1;
nodes = (
(1430,267,o),
(1450,223,o),
(1450,175,c),
(1450,78,o),
(1372,0,o),
(1275,0,c),
(225,0,l),
(128,0,o),
(50,78,o),
(50,175,c),
(50,265,l),
(630,265,l),
(630,198,o),
(684,145,o),
(750,145,c),
(783,145,o),
(813,158,o),
(835,180,c),
(857,202,o),
(870,232,o),
(870,265,c),
(870,320,o),
(838,350,o),
(826,350,c),
(826,350,o),
(826,350,o),
(826,350,c),
(838,350,o),
(870,383,o),
(870,434,c),
(870,467,o),
(857,498,o),
(835,519,c),
(813,541,o),
(783,555,o),
(750,555,c),
(717,555,o),
(687,541,o),
(665,519,c),
(643,498,o),
(630,467,o),
(630,434,c),
(50,434,l),
(50,525,l),
(50,621,o),
(128,700,o),
(225,700,c),
(1275,700,l),
(1323,700,o),
(1367,680,o),
(1399,648,c),
(1430,617,o),
(1450,573,o),
(1450,525,c),
(1450,428,o),
(1372,350,o),
(1275,350,c),
(1323,350,o),
(1367,330,o),
(1399,298,c)
);
}
);
width = 1500;
}
);
unicode = 51;
},
{
glyphname = four;
lastChange = "2024-04-12 19:11:06 +0000";
layers = (
{
layerId = m002;
shapes = (
{
closed = 1;
nodes = (
(279,700,l),
(50,224,l),
(50,192,l),
(289,192,l),
(289,0,l),
(311,0,l),
(311,192,l),
(400,192,l),
(400,214,l),
(311,214,l),
(311,700,l)
);
},
{
closed = 1;
nodes = (
(289,670,l),
(289,214,l),
(70,214,l)
);
}
);
width = 450;
},
{
layerId = m003;
shapes = (
{
closed = 1;
nodes = (
(321,700,l),
(50,429,l),
(50,132,l),
(484,132,l),
(484,0,l),
(1310,0,l),
(1310,132,l),
(1450,132,l),
(1450,419,l),
(1310,419,l),
(1310,700,l)
);
},
{
closed = 1;
nodes = (
(596,531,l),
(596,419,l),
(484,419,l)
);
}
);
width = 1500;
}
);
unicode = 52;
},
{
glyphname = five;
lastChange = "2024-04-16 17:50:27 +0000";
layers = (
{
layerId = m002;
shapes = (
{
closed = 1;
nodes = (
(400,678,l),
(400,700,l),
(50,700,l),
(50,402,l),
(119,402,l),
(137,402,o),
(189,402,o),
(204,402,cs),
(320,402,o),
(378,345,o),
(378,202,c),
(378,22,o),
(272,22,o),
(209,22,cs),
(150,22,o),
(152,22,o),
(86,22,c),
(51,22,l),
(51,22,o),
(51,0,o),
(51,0,cs),
(54,0,o),
(100,0,o),
(103,0,c),
(204,0,l),
(263,0,o),
(307,5,o),
(346,39,cs),
(390,78,o),
(400,141,o),
(400,202,c),
(400,408,o),
(281,424,o),
(204,424,c),
(72,424,l),
(72,678,l)
);
}
);
width = 450;
},
{
layerId = m003;
shapes = (
{
closed = 1;
nodes = (
(1450,544,l),
(1450,700,l),
(50,700,l),
(50,274,l),
(523,274,l),
(538,274,o),
(551,268,o),
(561,259,c),
(570,249,o),
(576,236,o),
(576,222,c),
(576,207,o),
(570,194,o),
(561,185,c),
(551,176,o),
(538,170,o),
(523,170,c),
(54,170,l),
(64,120,o),
(92,76,o),
(131,45,cs),
(168,17,o),
(213,0,o),
(263,0,c),
(1227,0,l),
(1288,0,o),
(1344,25,o),
(1384,65,c),
(1425,105,o),
(1450,161,o),
(1450,222,c),
(1450,344,o),
(1350,444,o),
(1227,444,c),
(372,444,l),
(372,544,l)
);
}
);
width = 1500;
}
);
unicode = 53;
},
{
glyphname = six;
lastChange = "2024-04-16 17:35:46 +0000";
layers = (
{
background = {
shapes = (
{
closed = 1;
nodes = (
(77,22,o),
(67,219,o),
(73,405,c),
(119,427,o),
(370,500,o),
(370,247,cs),
(370,247,o),
(370,247,o),
(370,247,cs),
(370,112,o),
(360,22,o),
(232,22,cs)
);
},
{
closed = 1;
nodes = (
(305,700,l),
(305,700,l),
(143,700,o),
(50,571,o),
(50,370,c),
(50,370,l),
(50,176,o),
(61,0,o),
(232,0,c),
(232,0,ls),
(367,0,o),
(396,94,o),
(396,247,cs),
(396,247,o),
(396,247,o),
(396,247,cs),
(396,524,o),
(123,450,o),
(76,430,c),
(76,477,o),
(104,577,o),
(152,622,cs),
(191,658,o),
(239,678,o),
(305,678,c)
);
}
);
};
layerId = m002;
shapes = (
{
closed = 1;
nodes = (
(139,22,o),
(72,111,o),
(72,220,c),
(72,327,o),
(121,414,o),
(223,414,c),
(312,414,o),
(377,340,o),
(377,220,c),
(377,87,o),
(312,22,o),
(223,22,c)
);
},
{
closed = 1;
nodes = (
(283,700,l),
(109,413,ls),
(89,379,o),
(50,324,o),
(50,212,c),
(50,212,l),
(50,127,o),
(104,0,o),
(225,0,c),
(225,0,l),
(274,0,o),
(331,22,o),
(362,73,cs),
(387,114,o),
(400,159,o),
(400,228,c),
(400,369,o),
(289,489,o),
(134,412,c),
(134,412,o),
(250,604,o),
(250,604,c),
(250,604,o),
(309,700,o),
(309,700,c)
);
}
);
width = 450;
},
{
layerId = m003;
shapes = (
{
closed = 1;
nodes = (
(694,176,o),
(648,222,o),
(648,279,c),
(648,335,o),
(694,381,o),
(750,381,c),
(807,381,o),
(853,335,o),
(853,279,c),
(853,222,o),
(807,176,o),
(750,176,c)
);
},
{
closed = 1;
nodes = (
(1450,700,l),
(400,700,l),
(207,700,o),
(50,543,o),
(50,350,c),
(50,350,l),
(50,156,o),
(207,0,o),
(400,0,c),
(1198,0,l),
(1268,0,o),
(1331,28,o),
(1376,73,c),
(1422,119,o),
(1450,182,o),
(1450,252,c),
(1450,391,o),
(1337,504,o),
(1198,504,c),
(1248,504,o),
(1298,504,o),
(1349,504,cs),
(1382,504,o),
(1416,504,o),
(1450,504,c)
);
}
);
width = 1500;
}
);
unicode = 54;
},
{
glyphname = seven;
lastChange = "2024-04-16 17:54:52 +0000";
layers = (
{
layerId = m002;
shapes = (
{
closed = 1;
nodes = (
(50,700,l),
(50,678,l),
(378,678,l),
(50,0,l),
(74,0,l),
(400,673,l),
(400,700,l)
);
}
);
width = 450;
},
{
layerId = m003;
shapes = (
{
closed = 1;
nodes = (
(50,700,l),
(50,501,l),
(551,501,l),
(50,0,l),
(954,0,l),
(1450,496,l),
(1450,700,l)
);
}
);
width = 1500;
}
);
unicode = 55;
},
{
glyphname = eight;
lastChange = "2024-04-16 18:15:11 +0000";
layers = (
{
layerId = m002;
shapes = (
{
closed = 1;
nodes = (
(147,361,o),
(90,430,o),
(90,523,c),
(90,607,o),
(147,678,o),
(221,678,c),
(296,678,o),
(361,607,o),
(361,523,c),
(361,439,o),
(296,361,o),
(221,361,c)
);
},
{
closed = 1;
nodes = (
(138,22,o),
(73,92,o),
(73,177,c),
(73,264,o),
(138,335,o),
(221,335,c),
(322,335,o),
(378,264,o),
(378,177,c),
(378,101,o),
(304,22,o),
(221,22,c)
);
},
{
closed = 1;
nodes = (
(293,350,o),
(329,381,o),
(345,405,cs),
(362,430,o),
(383,477,o),
(383,523,c),
(383,622,o),
(318,700,o),
(225,700,c),
(225,700,l),
(160,700,o),
(118,656,o),
(101,633,cs),
(87,614,o),
(68,561,o),
(68,523,c),
(68,428,o),
(131,350,o),
(185,350,c),
(154,350,o),
(109,319,o),
(89,291,cs),
(68,262,o),
(50,223,o),
(50,177,c),
(50,78,o),
(123,0,o),
(225,0,c),
(225,0,l),
(272,0,o),
(320,27,o),
(343,52,cs),
(374,85,o),
(400,127,o),
(400,177,c),
(400,283,o),
(313,350,o),
(270,350,c)
);
}
);
width = 450;
},
{
layerId = m003;
shapes = (
{
closed = 1;
nodes = (
(714,423,o),
(685,452,o),
(685,489,c),
(685,525,o),
(714,554,o),
(750,554,c),
(786,554,o),
(816,525,o),
(816,489,c),
(816,452,o),
(786,423,o),
(750,423,c)
);
},
{
closed = 1;
nodes = (
(714,146,o),
(685,175,o),
(685,211,c),
(685,247,o),
(714,277,o),
(750,277,c),
(786,277,o),
(816,247,o),
(816,211,c),
(816,175,o),
(786,146,o),
(750,146,c)
);
},
{
closed = 1;
nodes = (
(1324,350,o),
(1367,370,o),
(1399,401,c),
(1431,433,o),
(1450,477,o),
(1450,525,c),
(1450,622,o),
(1372,700,o),
(1275,700,c),
(225,700,l),
(177,700,o),
(133,680,o),
(101,649,c),
(70,617,o),
(50,573,o),
(50,525,c),
(50,428,o),
(129,350,o),
(225,350,c),
(177,350,o),
(133,330,o),
(101,299,c),
(70,267,o),
(50,223,o),
(50,175,c),
(50,78,o),
(129,0,o),
(225,0,c),
(1275,0,l),
(1324,0,o),
(1367,20,o),
(1399,51,c),
(1431,83,o),
(1450,127,o),
(1450,175,c),
(1450,272,o),
(1372,350,o),
(1275,350,c)
);
}
);
width = 1500;
}
);
unicode = 56;
},
{
glyphname = nine;
lastChange = "2024-04-16 18:28:38 +0000";
layers = (
{
layerId = m002;
shapes = (
{
closed = 1;
nodes = (
(72,586,o),
(130,678,o),
(225,678,c),
(305,678,o),
(378,586,o),
(378,472,c),
(378,315,o),
(305,263,o),
(225,263,c),
(145,263,o),
(72,359,o),
(72,472,c)
);
},
{
closed = 1;
nodes = (
(225,700,l),
(113,700,o),
(50,591,o),
(50,472,c),
(50,430,o),
(64,371,o),
(88,331,cs),
(109,296,o),
(153,241,o),
(225,241,c),
(259,241,o),
(298,251,o),
(315,267,c),
(163,0,l),
(188,0,l),
(367,315,ls),
(388,352,o),
(400,425,o),
(400,472,c),
(400,591,o),
(337,700,o),
(225,700,c)
);
}
);
width = 450;
},
{
layerId = m003;
shapes = (
{
closed = 1;
nodes = (
(675,497,o),
(709,530,o),
(750,530,c),
(791,530,o),
(824,497,o),
(824,456,c),
(824,415,o),
(791,381,o),
(750,381,c),
(709,381,o),
(675,415,o),
(675,456,c)
);
},
{
closed = 1;
nodes = (
(294,700,l),
(159,700,o),
(50,591,o),
(50,456,c),
(50,388,o),
(77,327,o),
(121,283,c),
(165,239,o),
(227,211,o),
(294,211,c),
(430,211,o),
(565,211,o),
(701,211,c),
(490,0,l),
(1238,0,l),
(1450,211,l),
(1450,293,o),
(1450,374,o),
(1450,456,c),
(1450,591,o),
(1340,700,o),
(1205,700,c)
);
}
);
width = 1500;
}
);
unicode = 57;
},
